<?xml version="1.0" standalone="no"?>
<!DOCTYPE svg PUBLIC "-//W3C//DTD SVG 1.1//EN" "http://www.w3.org/Graphics/SVG/1.1/DTD/svg11.dtd" >
<svg xmlns="http://www.w3.org/2000/svg">
<metadata></metadata>
<defs>
<font id="pf_dintext_proextrathin" horiz-adv-x="921" >
<font-face units-per-em="2048" ascent="1536" descent="-512" />
<missing-glyph horiz-adv-x="450" />
<glyph unicode="&#xfb01;" horiz-adv-x="829" d="M72 975v41h121v233q0 122 64.5 177t170.5 55q154 0 252 -95l-35 -38q-53 50 -102 64.5t-117 14.5q-90 0 -136 -43.5t-46 -144.5v-223h420v-1016h-54v975h-366v-975h-51v975h-121z" />
<glyph unicode="&#xfb02;" horiz-adv-x="884" d="M72 973v41h121v235q0 122 64.5 177t170.5 55q117 0 236 -58v-1206q0 -90 37 -128t130 -38h15v-51h-17q-111 0 -164 46t-53 153v1190q-86 38 -186 38q-90 0 -136 -43.5t-46 -144.5v-225h254v-41h-254v-973h-51v973h-121z" />
<glyph unicode="&#xfb03;" horiz-adv-x="1247" d="M72 975v41h121v182q0 122 64.5 177t170.5 55q124 0 213 -62q56 96 205 96q155 0 252 -94l-35 -39q-53 50 -102.5 65t-116.5 15q-90 0 -136 -43.5t-46 -144.5v-207h419v-1016h-53v975h-366v-975h-52v975h-366v-975h-51v975h-121zM244 1016h366v217q0 50 11 84 q-75 61 -195 61q-90 0 -136 -44.5t-46 -145.5v-172z" />
<glyph unicode="&#xfb04;" horiz-adv-x="1302" d="M72 975v41h121v182q0 122 64.5 177t170.5 55q119 0 207 -58q53 109 211 109q116 0 235 -58v-1206q0 -90 37.5 -128t130.5 -38h15v-51h-17q-111 0 -164 46t-53 153v1190q-86 38 -186 38q-90 0 -136 -43.5t-46 -144.5v-223h253v-41h-253v-975h-52v975h-366v-975h-51v975 h-121zM244 1016h366v233q0 40 6 70q-73 59 -190 59q-90 0 -136 -44.5t-46 -145.5v-172z" />
<glyph horiz-adv-x="2048" />
<glyph horiz-adv-x="2048" />
<glyph unicode="&#xd;" horiz-adv-x="2048" />
<glyph unicode=" "  horiz-adv-x="450" />
<glyph unicode="&#x09;" horiz-adv-x="450" />
<glyph unicode="&#xa0;" horiz-adv-x="450" />
<glyph unicode="!" horiz-adv-x="405" d="M166 0v84h74v-84h-74zM176 1425h57l-12 -1028h-33z" />
<glyph unicode="&#x22;" horiz-adv-x="430" d="M121 1071v354h41v-354h-41zM287 1071v354h41v-354h-41z" />
<glyph unicode="#" d="M10 467v37h209l62 424h-209v39h213l61 456h39l-61 -456h331l66 456h37l-62 -456h213v-39h-217l-59 -424h215v-37h-219l-58 -467h-47l64 467h-330l-65 -467h-46l68 467h-205zM262 504h330l59 424h-332z" />
<glyph unicode="$" d="M31 121l32 45q173 -117 369 -129v661q-65 11 -116.5 26t-104 43t-87.5 66t-57 97t-22 133q0 158 104 262t283 113v147h39v-147q188 -3 344 -95l-31 -49q-162 90 -313 95v-644q94 -16 139 -26q285 -73 285 -359q0 -168 -115 -270.5t-309 -105.5v-236h-39v236 q-235 9 -401 137zM98 1059q0 -65 22 -116t54 -81.5t80.5 -54t88 -34t89.5 -19.5v635q-139 -6 -236.5 -93.5t-97.5 -236.5zM471 37q157 2 264 86.5t107 236.5q0 54 -13 99.5t-33 77.5t-51 57.5t-61 41t-69.5 27.5t-70 18t-67.5 11h-6v-655z" />
<glyph unicode="%" horiz-adv-x="1509" d="M147 784v418q0 106 72 167t176 61q103 0 174.5 -61t71.5 -167v-418q0 -104 -71.5 -164.5t-174.5 -60.5q-104 0 -176 60.5t-72 164.5zM193 793q0 -87 55 -141t147 -54q90 0 145.5 54t55.5 141v403q0 88 -55 141.5t-146 53.5q-92 0 -147 -53.5t-55 -141.5v-403zM297 -35 l866 1497h58l-871 -1497h-53zM874 219v418q0 106 72 166.5t176 60.5q103 0 174.5 -60.5t71.5 -166.5v-418q0 -104 -71.5 -164.5t-174.5 -60.5q-104 0 -176 60.5t-72 164.5zM920 227q0 -87 55 -140.5t147 -53.5q90 0 145.5 53.5t55.5 140.5v404q0 88 -55 141t-146 53 q-92 0 -147 -53t-55 -141v-404z" />
<glyph unicode="&#x26;" horiz-adv-x="1267" d="M158 328q0 264 323 485l-45 57q-137 180 -137 301q0 51 17 98t51 87.5t94 65t137 24.5q101 0 169.5 -21.5t129.5 -78.5l-41 -46q-57 48 -116.5 70.5t-139.5 22.5q-68 0 -118.5 -22.5t-76.5 -58.5t-37.5 -71t-11.5 -70q0 -107 158 -313l440 -575q34 57 54.5 144t23.5 163 h53q-17 -203 -92 -350l191 -240h-74l-149 195q-178 -207 -433 -207q-161 0 -265.5 90.5t-104.5 249.5zM211 336q0 -74 28 -133.5t74.5 -95t102 -54t114.5 -18.5q112 0 212.5 52t177.5 149l-406 532q-133 -87 -218 -197t-85 -235z" />
<glyph unicode="'" horiz-adv-x="335" d="M152 1071v354h41v-354h-41z" />
<glyph unicode="(" horiz-adv-x="507" d="M150 608q0 225 82 457t223 399l18 -12q-124 -185 -192 -402.5t-68 -428.5q0 -226 69.5 -446.5t192.5 -403.5l-16 -13q-137 162 -223 391.5t-86 458.5z" />
<glyph unicode=")" horiz-adv-x="507" d="M61 -236q123 183 193 404t70 446q0 212 -68.5 429t-192.5 403l19 12q141 -167 223 -399t82 -457q0 -228 -86 -458t-221 -392z" />
<glyph unicode="*" horiz-adv-x="684" d="M63 1202l21 62l248 -103l-13 260h58l-15 -260l252 103l21 -62l-254 -78l168 -202l-51 -41l-150 227l-143 -227l-51 41l161 202z" />
<glyph unicode="+" d="M49 535v49h385v395h47v-395h385v-49h-385v-402h-47v402h-385z" />
<glyph unicode="," horiz-adv-x="278" d="M76 -190l47 190h-21v90h80v-96l-71 -184h-35z" />
<glyph unicode="-" horiz-adv-x="735" d="M111 518v53h514v-53h-514z" />
<glyph unicode="." horiz-adv-x="264" d="M100 0v88h78v-88h-78z" />
<glyph unicode="/" horiz-adv-x="1411" d="M162 -35l866 1497h55l-870 -1497h-51z" />
<glyph unicode="0" d="M94 356v711q0 171 106.5 270t260.5 99t260 -99t106 -270v-711q0 -171 -106 -268.5t-260 -97.5t-260.5 97.5t-106.5 268.5zM141 371q0 -151 88 -244.5t232 -93.5t231.5 93.5t87.5 244.5v684q0 151 -87.5 243.5t-231.5 92.5t-232 -92.5t-88 -243.5v-684z" />
<glyph unicode="1" d="M264 1223v61l217 141h54v-1425h-52v1364z" />
<glyph unicode="2" d="M88 0v51l612 803q32 41 56 114t24 126q0 125 -84 206.5t-231 81.5q-105 0 -190 -61t-117 -160l-52 13q35 115 136.5 186.5t222.5 71.5q173 0 272 -97t99 -235q0 -150 -95 -271l-594 -780h680v-49h-739z" />
<glyph unicode="3" d="M84 207l51 8q31 -84 106 -134t187 -50q91 0 172 40.5t134.5 122t53.5 185.5q0 157 -87 246.5t-222 89.5h-86v49h70q129 0 215 82.5t86 220.5q0 141 -89.5 234.5t-238.5 93.5q-94 0 -178.5 -53t-112.5 -142l-49 10q37 105 129.5 166.5t214.5 61.5q93 0 167 -30.5 t119 -82.5t68 -117t23 -137q0 -41 -11.5 -86t-36 -94t-72 -90t-111.5 -60q74 -19 127 -61.5t79 -96.5t37 -102t11 -94q0 -179 -119.5 -289t-296.5 -110q-76 0 -140 18.5t-120 69.5t-80 131z" />
<glyph unicode="4" d="M59 236v47l516 1142h60l-526 -1140h602v450h51v-450h129v-49h-129v-236h-51v236h-652z" />
<glyph unicode="5" d="M115 207l43 14q33 -88 111.5 -139t193.5 -51q150 0 237.5 89.5t87.5 231.5v221q0 144 -81.5 233t-243.5 89q-72 0 -161 -46t-130 -106h-45v682h678v-49h-631v-565q70 70 152 98.5t153 28.5q184 0 270.5 -103t86.5 -272v-190q0 -175 -96 -280t-283 -105 q-133 0 -218.5 59.5t-123.5 159.5z" />
<glyph unicode="6" d="M109 385q0 128 51 227l407 813h54l-361 -714l2 -4q42 40 103.5 59.5t117.5 19.5q69 0 133.5 -24t117 -69.5t84.5 -119t32 -163.5q0 -111 -32 -195t-87 -132t-122 -71.5t-144 -23.5q-67 0 -129.5 25t-113.5 72.5t-82 125t-31 174.5zM156 389q0 -162 86.5 -261t236.5 -99 q63 0 121 24t103.5 68t72.5 113.5t27 154.5q0 161 -92 257.5t-232 96.5q-141 0 -232 -96.5t-91 -257.5z" />
<glyph unicode="7" d="M98 1147v278h744v-49l-531 -1376h-55l535 1376h-644v-229h-49z" />
<glyph unicode="8" d="M76 377q0 48 14 99t43 102t80.5 93t118.5 64q-66 24 -113.5 64.5t-71 87.5t-33.5 90.5t-10 87.5q0 157 107 263t264 106q162 0 266.5 -105.5t104.5 -263.5q0 -106 -56 -194t-180 -136l2 -2q70 -20 123 -61t82 -92t43 -102.5t14 -100.5q0 -169 -115.5 -279t-283.5 -110 t-283.5 110t-115.5 279zM123 379q0 -148 105 -250t247 -102t247 102t105 250t-104.5 243t-247.5 95t-247.5 -95t-104.5 -243zM152 1069q0 -77 28 -138t74.5 -98t103 -56t117.5 -19t117.5 19t103.5 55.5t75 98t28 138.5q0 101 -48.5 177t-121 112.5t-154.5 36.5t-154.5 -36.5 t-120.5 -112.5t-48 -177z" />
<glyph unicode="9" d="M111 1028q0 110 33 192.5t89.5 128.5t122 67.5t140.5 21.5q69 0 132 -25t113.5 -73t80.5 -125.5t30 -174.5q0 -128 -51 -227l-408 -813h-53l352 698l-2 2q-99 -61 -213 -61q-69 0 -133.5 25.5t-117 72.5t-84 123t-31.5 168zM158 1036q0 -161 91.5 -257.5t231.5 -96.5 q141 0 232.5 96.5t91.5 257.5t-88.5 262t-235.5 101q-132 0 -227.5 -98t-95.5 -265z" />
<glyph unicode=":" horiz-adv-x="292" d="M109 0v88h77v-88h-77zM109 672v88h77v-88h-77z" />
<glyph unicode=";" horiz-adv-x="292" d="M80 -190l47 190h-21v90h80v-96l-71 -184h-35zM109 672v88h77v-88h-77z" />
<glyph unicode="&#x3c;" d="M49 535v49l813 350v-53l-756 -324l760 -319v-58z" />
<glyph unicode="=" d="M49 332v49h817v-49h-817zM49 678v47h817v-47h-817z" />
<glyph unicode="&#x3e;" d="M51 180v58l760 319l-756 324v53l813 -350v-49z" />
<glyph unicode="?" horiz-adv-x="858" d="M61 1116q36 150 142.5 236t240.5 86q158 0 257.5 -97.5t99.5 -246.5q0 -53 -13 -99.5t-44 -93.5t-50.5 -70.5t-64.5 -74.5q-39 -43 -59 -67.5t-48 -64.5t-41.5 -81t-17.5 -86v-152h-51v156q0 85 47 161t131 164q162 171 162 297q0 40 -9.5 80.5t-33 82.5t-58.5 74 t-90.5 52.5t-124.5 20.5q-66 0 -125.5 -28.5t-99.5 -72t-66 -92.5t-32 -94zM403 0v88h78v-88h-78z" />
<glyph unicode="@" horiz-adv-x="1531" d="M63 688q0 214 89.5 385.5t257 271t385.5 99.5q144 0 268.5 -42.5t219 -122t148.5 -203.5t54 -277q0 -240 -92.5 -371t-245.5 -131q-18 0 -36.5 2.5t-47.5 11t-49.5 30t-26.5 54.5q-57 -110 -278 -110q-53 0 -99 10.5t-84.5 33.5t-61 64t-22.5 96q0 99 63.5 158.5 t182.5 59.5h295v133q0 96 -46 140t-165 44q-151 0 -246 -72l-22 35q116 78 266 78q61 0 103 -8.5t79 -31t55.5 -68t18.5 -113.5v-381q0 -25 1 -37.5t7 -32t17.5 -29.5t35.5 -18t58 -8q62 0 112.5 26t84.5 70t57 104t33 125t10 136q0 119 -36 219.5t-98 171t-143.5 120.5 t-173 73.5t-186.5 23.5q-206 0 -366 -91t-247.5 -254.5t-87.5 -373.5q0 -166 54 -303.5t150 -230t229 -143t290 -50.5q244 0 404 80l18 -41q-226 -80 -413 -80q-225 0 -400 92.5t-274 268t-99 407.5zM485 498q0 -85 62.5 -130.5t167.5 -45.5q42 0 84 7.5t86 24.5t71 52 t27 83v181h-283q-95 0 -155 -43.5t-60 -128.5z" />
<glyph unicode="A" horiz-adv-x="1183" d="M37 0l518 1425h74l518 -1425h-64l-125 358h-733l-127 -358h-61zM244 410h696l-346 962h-4z" />
<glyph unicode="B" horiz-adv-x="1183" d="M164 0v1425h510q185 0 291 -101.5t106 -254.5q0 -43 -13.5 -90.5t-41 -97t-79 -88.5t-118.5 -56v-2q75 -13 132.5 -52t89.5 -91.5t47.5 -107t15.5 -109.5q0 -168 -107.5 -271.5t-269.5 -103.5h-563zM217 49h473q172 0 263 89.5t91 240.5q0 141 -92 235.5t-266 94.5h-469 v-660zM217 758h442q160 0 259.5 85t99.5 226q0 137 -96.5 222t-262.5 85h-442v-618z" />
<glyph unicode="C" horiz-adv-x="1064" d="M109 498v440q0 102 30.5 191t89 158t152.5 109t213 40q149 0 260 -67.5t166 -182.5l-45 -27q-48 103 -147.5 166.5t-231.5 63.5q-107 0 -191 -35.5t-136.5 -98t-79.5 -144t-27 -177.5v-447q0 -94 27 -175.5t79.5 -144.5t136.5 -99.5t191 -36.5q267 0 387 254l45 -19 q-54 -129 -168 -204.5t-266 -75.5q-122 0 -217 41t-152.5 112t-86.5 162t-29 197z" />
<glyph unicode="D" horiz-adv-x="1228" d="M164 0v1425h454q165 0 275 -61t172 -193q31 -65 40 -167t9 -265q0 -187 -8 -291t-39 -178q-61 -146 -176.5 -208t-296.5 -62h-430zM219 49h383q459 0 459 506v303q0 144 -31.5 245.5t-92.5 160.5t-143 85.5t-192 26.5h-383v-1327z" />
<glyph unicode="E" horiz-adv-x="1064" d="M164 0v1425h846v-49h-791v-626h676v-50h-676v-651h791v-49h-846z" />
<glyph unicode="F" horiz-adv-x="1021" d="M164 0v1425h846v-49h-787v-628h672v-48h-672v-700h-59z" />
<glyph unicode="G" horiz-adv-x="1183" d="M104 498v440q0 102 30.5 191t89.5 158t153 109t213 40q149 0 260 -67.5t166 -182.5q-8 -6 -23.5 -15t-21.5 -12q-48 103 -147.5 166.5t-231.5 63.5q-107 0 -191 -35.5t-136.5 -98t-79.5 -144t-27 -177.5v-447q0 -94 27 -175.5t79.5 -144.5t136.5 -99.5t191 -36.5 q98 0 180.5 36t136.5 97t83.5 140t29.5 165v182h-334v49h387v-204q0 -142 -55.5 -256.5t-167 -184t-262.5 -69.5q-122 0 -217 41t-152.5 112t-87 162t-29.5 197z" />
<glyph unicode="H" horiz-adv-x="1267" d="M164 0v1425h53v-675h834v675h53v-1425h-53v700h-834v-700h-53z" />
<glyph unicode="I" horiz-adv-x="405" d="M176 0v1425h53v-1425h-53z" />
<glyph unicode="J" horiz-adv-x="899" d="M84 82l33 41q107 -84 248 -84q335 0 335 389v997h54v-1036q0 -132 -53.5 -224.5t-140 -134.5t-198.5 -42q-74 0 -149 24.5t-129 69.5z" />
<glyph unicode="K" horiz-adv-x="1228" d="M164 0v1425h53v-976l795 976h57l-430 -536l520 -889h-57l-498 848l-387 -477v-371h-53z" />
<glyph unicode="L" horiz-adv-x="1064" d="M164 0v1425h53v-1376h793v-49h-846z" />
<glyph unicode="M" horiz-adv-x="1511" d="M162 0v1425h57l547 -1120l549 1120h51v-1425h-51v1309l-529 -1080h-43l-530 1078v-1307h-51z" />
<glyph unicode="N" horiz-adv-x="1347" d="M170 0v1425h59l901 -1339v1339h54v-1425h-60l-901 1337v-1337h-53z" />
<glyph unicode="O" horiz-adv-x="1144" d="M88 498v440q0 102 30.5 191t89 158t152.5 109t213 40q222 0 350 -138t128 -360v-440q0 -236 -128 -374t-350 -138q-122 0 -217 41t-152.5 112t-86.5 162t-29 197zM143 487q0 -92 27.5 -173t79.5 -143.5t136 -99t189 -36.5q194 0 307 129t113 336v434q0 197 -113 323.5 t-307 126.5q-105 0 -188.5 -35t-136 -97t-80 -143t-27.5 -175v-447z" />
<glyph unicode="P" horiz-adv-x="1118" d="M168 0v1425h502q87 0 161.5 -22t135.5 -68t96 -126.5t35 -188.5q0 -71 -24.5 -138.5t-72.5 -125t-129.5 -92.5t-185.5 -35h-463v-629h-55zM223 680h453q94 0 166 29.5t113.5 79.5t62 110t20.5 127q0 171 -104.5 260.5t-265.5 89.5h-445v-696z" />
<glyph unicode="Q" horiz-adv-x="1183" d="M88 498v440q0 102 30.5 191t89 158t152.5 109t213 40q222 0 350 -138t128 -360v-440q0 -172 -74 -301l213 -168l-31 -35q-75 57 -209 164q-127 -172 -377 -172q-122 0 -217 41t-152.5 112t-86.5 162t-29 197zM145 487q0 -92 27 -173t79 -143.5t135.5 -99t188.5 -36.5 q214 0 330 158l-213 172l31 36l207 -165q63 114 63 264v434q0 197 -112.5 323.5t-305.5 126.5q-105 0 -188.5 -35t-135.5 -97t-79 -143t-27 -175v-447z" />
<glyph unicode="R" horiz-adv-x="1183" d="M168 0v1425h532q183 0 293.5 -94.5t110.5 -263.5q0 -158 -98.5 -264t-266.5 -123l346 -680h-67l-340 678h-457v-678h-53zM221 729h453q163 0 266.5 88t103.5 250q0 80 -31 141.5t-84 97t-116 53t-133 17.5h-459v-647z" />
<glyph unicode="S" horiz-adv-x="1071" d="M61 121l31 45q203 -129 443 -129q187 0 305 84t118 239q0 54 -14 100t-35.5 78.5t-56.5 60t-67.5 44.5t-78 31.5t-79 22.5t-78.5 16q-52 10 -88.5 18.5t-83 23t-78.5 31.5t-65 43t-53 58t-33 75.5t-13 96.5q0 171 114.5 275t317.5 104q207 0 383 -95l-26 -47 q-178 93 -361 93q-55 0 -107 -11t-101 -36.5t-85 -62.5t-58 -93.5t-22 -126.5q0 -53 14 -95.5t40.5 -71t56.5 -48.5t71.5 -34t76 -22t78.5 -17q24 -5 36 -7q58 -12 99 -22.5t91.5 -28t85 -37.5t70.5 -50.5t57 -67t34.5 -87t13.5 -111.5q0 -170 -128.5 -271t-355.5 -101 q-265 0 -469 133z" />
<glyph unicode="T" horiz-adv-x="970" d="M25 1376v49h925v-49h-434v-1376h-51v1376h-440z" />
<glyph unicode="U" horiz-adv-x="1228" d="M135 475v950h53v-923q0 -201 118.5 -332t307.5 -131q187 0 305.5 119t118.5 321v946h56v-970q0 -208 -136.5 -337.5t-343.5 -129.5q-205 0 -342 134.5t-137 352.5z" />
<glyph unicode="V" horiz-adv-x="1064" d="M37 1425h51l444 -1355h3l442 1355h51l-467 -1425h-57z" />
<glyph unicode="W" horiz-adv-x="1642" d="M49 1425h51l322 -1349h2l377 1349h51l377 -1349h2l319 1349h54l-344 -1425h-58l-377 1333h-2l-372 -1333h-58z" />
<glyph unicode="X" horiz-adv-x="1001" d="M35 0l436 731l-405 694h59l375 -643l374 643h60l-406 -694l437 -731h-60l-405 682l-406 -682h-59z" />
<glyph unicode="Y" horiz-adv-x="940" d="M18 1425h56l397 -780l395 780h54l-424 -833v-592h-52v592z" />
<glyph unicode="Z" horiz-adv-x="983" d="M68 0v51l788 1325h-754v49h811v-51l-786 -1325h786v-49h-845z" />
<glyph unicode="[" horiz-adv-x="450" d="M160 -227v1652h262v-49h-207v-1556h207v-47h-262z" />
<glyph unicode="\" horiz-adv-x="571" d="M-10 1485h43l516 -1571h-43z" />
<glyph unicode="]" horiz-adv-x="450" d="M80 -180h207v1556h-207v49h260v-1652h-260v47z" />
<glyph unicode="^" d="M115 686l317 731h49l314 -727h-54l-286 670l-283 -674h-57z" />
<glyph unicode="_" horiz-adv-x="1003" d="M0 -143h1004v-54h-1004v54z" />
<glyph unicode="`" horiz-adv-x="976" d="M434 1440l66 33l168 -291l-31 -17z" />
<glyph unicode="a" horiz-adv-x="952" d="M66 272q0 129 84.5 203t242.5 74h400v160q0 134 -74.5 203t-249.5 69q-185 0 -303 -104l-33 34q127 115 342 115q82 0 144 -13.5t115.5 -46t81.5 -94.5t28 -153v-719h-51v123h-5q-36 -57 -100 -89t-124 -40t-142 -8q-69 0 -131 16.5t-113.5 49.5t-81.5 89.5t-30 130.5z M117 272q0 -117 85.5 -179t227.5 -62q57 0 113.5 10t116 33t96.5 71t37 115v244h-390q-136 0 -211 -57.5t-75 -174.5z" />
<glyph unicode="b" d="M84 0v1477h51v-678h2q21 47 47 83.5t65 70.5t94.5 52.5t123.5 18.5q389 0 389 -510q0 -115 -20.5 -207.5t-64.5 -166t-120 -114t-180 -40.5q-46 0 -84.5 7t-86 28t-90 68t-73.5 118h-2v-207h-51zM135 500q0 -63 7 -121t28.5 -124.5t56 -114t96 -79.5t142.5 -32 q336 0 336 477t-336 477q-86 0 -150.5 -37.5t-103 -104t-57.5 -152t-19 -189.5z" />
<glyph unicode="c" horiz-adv-x="829" d="M63 506q0 139 38 243t103 162.5t141.5 86.5t164.5 28q154 0 278 -96l-30 -39q-47 39 -110 65.5t-126 26.5q-195 0 -301 -124.5t-106 -352.5t106 -353.5t301 -125.5q119 0 236 92l30 -35q-126 -98 -278 -98q-88 0 -164.5 28t-141.5 86.5t-103 162.5t-38 243z" />
<glyph unicode="d" d="M57 514q0 80 10 149t37 137t69.5 116t112 78t160.5 30q70 0 126 -18.5t94.5 -52.5t63 -67t46.5 -77h2v668h49v-1477h-49v209h-2q-35 -73 -79 -120.5t-93.5 -68.5t-88.5 -27.5t-87 -6.5q-85 0 -150 27t-106.5 73.5t-67.5 115t-36.5 144t-10.5 168.5zM111 506 q0 -49 2.5 -89t10.5 -91t21.5 -91t38.5 -80t59 -66.5t84.5 -43t112.5 -16.5q81 0 143.5 32t98 80t58.5 113.5t30.5 124.5t7.5 121q0 139 -32.5 244.5t-108.5 171t-188 65.5q-338 0 -338 -475z" />
<glyph unicode="e" horiz-adv-x="952" d="M88 502q0 121 24.5 214.5t63.5 151t93.5 94t108.5 50.5t114 14q84 0 151.5 -25t112 -68t74 -103.5t42.5 -128.5t13 -146v-41h-750v-11q-1 -99 17 -177q18 -84 61 -153t119.5 -107.5t183.5 -38.5q134 0 250 79l31 -36q-121 -84 -277 -84q-432 0 -432 516zM139 557h692 q-7 213 -94.5 319.5t-242.5 106.5q-162 0 -254 -111.5t-101 -314.5z" />
<glyph unicode="f" horiz-adv-x="505" d="M72 977v39h121v231q0 109 61.5 169.5t153.5 60.5h84v-47h-66q-182 0 -182 -207v-207h248v-39h-248v-977h-51v977h-121z" />
<glyph unicode="g" horiz-adv-x="1005" d="M100 506q0 110 21.5 201.5t66 164t121 113.5t178.5 41q51 0 92.5 -8t86.5 -30t84.5 -66.5t70.5 -110.5h2v205h49v-1010q0 -112 -33 -196t-91.5 -132.5t-131.5 -72t-161 -23.5q-146 0 -258 84l30 39q111 -78 228 -78q169 0 268.5 92.5t99.5 260.5v239h-2 q-49 -108 -128.5 -168.5t-207.5 -60.5q-91 0 -160 30t-111 79t-68.5 118t-36 138.5t-9.5 150.5zM154 506q0 -473 340 -473q110 0 185.5 66t109.5 172.5t34 244.5q0 61 -8 120t-31 123.5t-58 112t-95 78.5t-137 31q-85 0 -148.5 -31.5t-99 -78.5t-57.5 -113.5t-28.5 -125.5 t-6.5 -126z" />
<glyph unicode="h" horiz-adv-x="1042" d="M139 0v1477h49v-662h5q32 71 93.5 120t126 69t130.5 20q179 0 269.5 -89t90.5 -251v-684h-49v670q0 152 -82.5 230.5t-232.5 78.5q-147 0 -249 -102.5t-102 -258.5v-618h-49z" />
<glyph unicode="i" horiz-adv-x="380" d="M156 1362v65h67v-65h-67zM166 0v1016h51v-1016h-51z" />
<glyph unicode="j" horiz-adv-x="421" d="M-16 -371h34q92 6 134.5 58t42.5 157v1170h53v-1180q0 -113 -57.5 -182.5t-172.5 -69.5h-34v47zM186 1364v63h70v-63h-70z" />
<glyph unicode="k" horiz-adv-x="952" d="M150 0v1477h49v-1125l587 664h62l-324 -369l418 -647h-55l-398 616l-290 -335v-281h-49z" />
<glyph unicode="l" horiz-adv-x="421" d="M150 199v1278h51v-1260q0 -90 37.5 -128t130.5 -38h14v-51h-16q-111 0 -164 46t-53 153z" />
<glyph unicode="m" horiz-adv-x="1718" d="M129 0v1016h49v-189h4q31 71 90 117t119.5 63t126.5 17q134 0 223 -60.5t123 -170.5q47 111 144 171t225 60q166 0 260 -91t94 -249v-684h-51v670q0 149 -83.5 229t-221.5 80q-149 0 -249.5 -98t-100.5 -254v-627h-50v670q0 148 -88 228.5t-227 80.5q-148 0 -243 -97.5 t-95 -254.5v-627h-49z" />
<glyph unicode="n" horiz-adv-x="1024" d="M129 0v1012h49v-197h4q32 71 93.5 120t126 69t130.5 20q179 0 270 -89t91 -251v-684h-49v670q0 152 -83 230.5t-233 78.5q-147 0 -248.5 -102.5t-101.5 -258.5v-618h-49z" />
<glyph unicode="o" horiz-adv-x="976" d="M84 514q0 292 143 418q109 94 267 94q219 0 325 -162q74 -117 74 -364q0 -272 -117 -400q-103 -112 -293 -112q-171 0 -270 96q-129 129 -129 430zM135 508q0 -149 29.5 -239t85.5 -148q90 -90 239 -90q153 0 248 98q51 55 78 139.5t27 233.5q0 241 -70 340 q-45 65 -117.5 102t-162.5 37q-149 0 -244 -98q-56 -57 -84.5 -143t-28.5 -232z" />
<glyph unicode="p" horiz-adv-x="1001" d="M121 -410v1426h51v-201h2q105 215 340 215q108 0 183.5 -40t117 -114.5t59 -165t17.5 -208.5q0 -79 -11 -149t-39.5 -137.5t-71.5 -116t-111.5 -78t-155.5 -29.5q-225 0 -328 215h-2v-617h-51zM172 516q0 -103 19 -188.5t57.5 -152t103 -103.5t150.5 -37q338 0 338 475 q0 48 -2.5 88.5t-10.5 91.5t-21.5 91t-38.5 80t-58.5 66.5t-83 43t-111.5 16.5q-68 0 -123.5 -21.5t-91.5 -59.5t-62 -84t-39.5 -101.5t-19.5 -104.5t-6 -100z" />
<glyph unicode="q" horiz-adv-x="1001" d="M92 502q0 89 11.5 164t40 143.5t72.5 116.5t112 76t155 28q239 0 326 -225h2v211h51v-1426h-51v635h-2q-91 -233 -336 -233q-75 0 -135.5 21t-101 59t-69.5 85.5t-45 107t-23 117t-7 120.5zM143 510q0 -70 7.5 -131t30 -126t58.5 -111t97.5 -75.5t142.5 -29.5 q109 0 185.5 65t111.5 171t35 243q0 50 -6 99.5t-19.5 104.5t-39 101.5t-60.5 84.5t-87.5 59.5t-117.5 21.5q-82 0 -145 -31.5t-98.5 -79t-58 -114t-29.5 -126.5t-7 -126z" />
<glyph unicode="r" horiz-adv-x="669" d="M150 0v1016h49v-197h4q33 76 90.5 124t116.5 65.5t125 17.5q85 0 143 -18l-14 -52q-65 25 -132 25q-147 0 -240 -98t-93 -256v-627h-49z" />
<glyph unicode="s" horiz-adv-x="901" d="M49 98l29 41q142 -108 375 -108q52 0 102.5 11t101 35.5t82 74t31.5 116.5q0 190 -305 234q-70 11 -114 20.5t-96 28t-81 42t-48.5 62.5t-19.5 90q0 130 97.5 205.5t265.5 75.5q188 0 319 -82l-28 -43q-131 80 -283 80q-139 0 -226.5 -58t-90.5 -169q0 -44 18 -77 t39.5 -52t67.5 -34.5t73 -21t86 -15.5q5 -1 9 -1.5t8 -1.5q61 -10 105.5 -21t96 -33t84 -51t54.5 -76.5t22 -107.5q0 -120 -99 -198t-290 -78q-232 0 -385 112z" />
<glyph unicode="t" horiz-adv-x="512" d="M41 975v41h147v276h54v-276h204v-41h-204v-744q0 -93 38 -138.5t136 -45.5h51v-47h-76q-95 0 -149 53t-54 152v770h-147z" />
<glyph unicode="u" horiz-adv-x="1060" d="M143 342v674h52v-670q0 -149 86 -230t225 -81q149 0 251.5 99.5t102.5 254.5v627h47v-1016h-49v188h-4q-44 -98 -145.5 -148t-204.5 -50q-173 0 -267 95.5t-94 256.5z" />
<glyph unicode="v" horiz-adv-x="870" d="M33 1012h57l344 -942h4l340 942h58l-373 -1012h-55z" />
<glyph unicode="w" horiz-adv-x="1423" d="M18 1012h58l282 -942h4l322 942h57l320 -942h4l285 942h55l-311 -1012h-58l-323 928h-2l-324 -928h-55z" />
<glyph unicode="x" horiz-adv-x="880" d="M72 0l334 520l-316 494h60l288 -459l287 459h63l-319 -494l338 -520h-59l-310 487l-307 -487h-59z" />
<glyph unicode="y" horiz-adv-x="837" d="M14 1012h58l350 -971h2l344 971h55l-446 -1248q-29 -83 -87 -129.5t-128 -46.5h-35v47h31q57 0 104 40.5t74 119.5l59 176z" />
<glyph unicode="z" horiz-adv-x="847" d="M74 0v41l643 930h-613v43h670v-41l-641 -930h641v-43h-700z" />
<glyph unicode="{" horiz-adv-x="450" d="M74 588v26q46 14 76 48.5t43 85.5t17.5 94.5t4.5 101.5v277q0 93 39 148.5t111 55.5h73v-32h-63q-121 0 -121 -201v-285q0 -118 -36.5 -201t-92.5 -102v-2q62 -20 95.5 -96t33.5 -191v-311q0 -199 121 -199h63v-34h-73q-72 0 -112 55.5t-40 148.5v287q0 79 -5 128.5 t-19.5 92t-42 67t-72.5 38.5z" />
<glyph unicode="|" horiz-adv-x="325" d="M150 -332v1798h38v-1798h-38z" />
<glyph unicode="}" horiz-adv-x="450" d="M74 -195h63q121 0 121 199v311q0 115 33.5 191t95.5 96v2q-56 19 -92.5 102t-36.5 201v285q0 201 -121 201h-63v32h73q72 0 111 -55.5t39 -148.5v-277q0 -58 4.5 -101.5t17.5 -94.5t43 -85.5t76 -48.5v-26q-45 -14 -72.5 -38.5t-42 -67t-19.5 -92t-5 -128.5v-287 q0 -93 -40 -148.5t-112 -55.5h-73v34z" />
<glyph unicode="~" d="M111 496q92 112 211 112q50 0 155 -43t144 -43q37 0 67 20.5t68 67.5l47 -30q-78 -115 -185 -115q-44 0 -150 43t-153 43q-81 0 -163 -86z" />
<glyph unicode="&#xa1;" horiz-adv-x="405" d="M166 915v84h74v-84h-74zM172 -426l12 1028h33l12 -1028h-57z" />
<glyph unicode="&#xa2;" d="M104 506q0 126 31.5 223.5t86.5 157.5t121.5 93t145.5 42v229h39v-225h23q152 0 276 -96l-28 -39q-47 39 -110 65.5t-126 26.5q-25 0 -35 -2v-954h31q125 0 240 92l28 -35q-126 -98 -276 -98h-23v-215h-39v219q-79 9 -145.5 42t-121.5 92.5t-86.5 157t-31.5 224.5z M156 506q0 -206 86 -329t247 -146v946q-161 -23 -247 -145t-86 -326z" />
<glyph unicode="&#xa3;" d="M57 631v37h172q-8 63 -28 129q-6 21 -31 89.5t-37 117t-12 92.5q0 67 20.5 126t61 107t108.5 75.5t156 27.5q224 0 350 -168l-39 -23q-110 152 -317 152q-38 0 -75.5 -8t-78 -29.5t-70.5 -54t-49.5 -85.5t-19.5 -120q0 -73 45 -195q44 -113 63 -233h299v-37h-296 q0 -177 -37 -317.5t-133 -264.5h753v-49h-801v49q180 239 172 582h-176z" />
<glyph unicode="&#xa4;" horiz-adv-x="1009" d="M193 354l108 109q-70 92 -70 205q-3 113 78 213l-108 108l35 35l108 -109q97 78 211 78q106 0 205 -71l108 108l35 -35l-108 -110q90 -96 90 -215q0 -114 -78 -215l108 -109q-4 -5 -36 -37l-109 109q-91 -79 -213 -82q-121 3 -221 90l-109 -109q-4 5 -17.5 19t-16.5 18z M285 670q0 -117 77.5 -197t192.5 -80q117 0 195.5 79.5t78.5 195.5t-78.5 195t-193.5 79q-116 -2 -194 -79.5t-78 -192.5z" />
<glyph unicode="&#xa5;" d="M10 1425h56l397 -780l395 780h53l-372 -735h321v-45h-346l-27 -53v-109h373v-47h-373v-436h-51v436h-368v47h368v109l-26 53h-342v45h319z" />
<glyph unicode="&#xa6;" horiz-adv-x="325" d="M150 -332v846h38v-846h-38zM150 625v841h38v-841h-38z" />
<glyph unicode="&#xa7;" horiz-adv-x="897" d="M98 731q0 60 33 120.5t94 106.5q-40 37 -68 90t-28 107q0 129 83 207t222 78q176 0 299 -99l-35 -45q-115 95 -264 95q-114 0 -184 -62.5t-70 -163.5q0 -25 6 -48t13 -40.5t24 -36t28 -30t37 -27t38 -22.5t44 -20.5t43 -17.5t47 -17.5l44 -16.5q66 -24 115 -49.5t95 -63 t70.5 -89.5t24.5 -116q0 -146 -113 -235q78 -89 78 -203q0 -132 -92.5 -214.5t-261.5 -82.5q-82 0 -167.5 34t-141.5 85l32 33q130 -105 273 -105q139 0 224 61.5t85 192.5q0 56 -22.5 100t-68 77.5t-94.5 56.5t-122 49q-184 67 -252 132t-68 179zM147 731q0 -44 14.5 -80 t35 -58.5t53.5 -43t59 -31.5t63.5 -25.5t55.5 -23.5q170 -70 227 -104q103 76 103 204q0 47 -16.5 86t-41.5 66.5t-68.5 53t-84 42.5t-101.5 39q-88 32 -176 80q-54 -41 -88.5 -96.5t-34.5 -108.5z" />
<glyph unicode="&#xa8;" horiz-adv-x="976" d="M262 1257v74h78v-74h-78zM659 1257v74h78v-74h-78z" />
<glyph unicode="&#xa9;" horiz-adv-x="1572" d="M102 698q0 152 53.5 286.5t146 230t221 151t272.5 55.5q145 0 274 -55.5t221.5 -151t146.5 -230t54 -286.5q0 -151 -54 -285t-146.5 -229.5t-221.5 -151t-274 -55.5q-144 0 -272.5 55.5t-221 151t-146 229.5t-53.5 285zM156 698q0 -186 84 -341.5t231 -246t324 -90.5 q178 0 326.5 90.5t233.5 246t85 341.5q0 187 -85 342.5t-233.5 245.5t-326.5 90q-177 0 -324 -90t-231 -245.5t-84 -342.5zM508 567v254q0 127 79 214t216 87q86 0 154 -40t104 -109l-45 -27q-29 57 -85 93t-126 36q-121 0 -184.5 -72t-63.5 -184v-256q0 -110 64 -183 t184 -73q145 0 213 137l47 -20q-36 -76 -105 -120t-157 -44q-146 0 -220.5 87.5t-74.5 219.5z" />
<glyph unicode="&#xaa;" horiz-adv-x="657" d="M41 745q0 87 58 134t171 47h273v100q0 84 -50.5 128t-168.5 44q-122 0 -209 -72l-31 31q92 80 244 80q121 0 189.5 -45t68.5 -160v-467h-43v78q-42 -42 -111.5 -65t-140.5 -23q-67 0 -121.5 18t-91.5 62.5t-37 109.5zM84 745q0 -72 59 -111.5t154 -39.5q37 0 77 8.5 t79 26.5t64.5 51t25.5 76v135h-264q-91 0 -143 -36.5t-52 -109.5z" />
<glyph unicode="&#xab;" horiz-adv-x="780" d="M145 434l232 338h55l-225 -338l225 -340h-59zM385 434l231 338h56l-226 -338l226 -340h-60z" />
<glyph unicode="&#xac;" d="M49 535v49h817v-451h-47v402h-770z" />
<glyph unicode="&#xad;" horiz-adv-x="735" d="M111 518v53h514v-53h-514z" />
<glyph unicode="&#xae;" horiz-adv-x="1103" d="M147 1008q0 185 119.5 309.5t292.5 124.5q177 0 294.5 -124t117.5 -310q0 -184 -119 -309.5t-293 -125.5q-172 0 -292 125.5t-120 309.5zM190 1008q0 -170 106 -286t263 -116q158 0 264.5 116.5t106.5 285.5t-106.5 285t-264.5 116t-263.5 -115.5t-105.5 -285.5zM412 758 v499h196q66 0 108 -34.5t42 -94.5q0 -54 -33 -92t-90 -45l123 -233h-43l-121 231h-145v-231h-37zM449 1022h149q55 0 88 27t33 79q0 48 -34.5 72.5t-84.5 24.5h-151v-203z" />
<glyph unicode="&#xaf;" horiz-adv-x="952" d="M266 1208v49h508v-49h-508z" />
<glyph unicode="&#xb0;" horiz-adv-x="718" d="M121 1192q0 99 70 168.5t169 69.5q103 0 171.5 -68.5t68.5 -169.5q0 -100 -69.5 -170t-170.5 -70t-170 70t-69 170zM168 1192q0 -82 55.5 -139.5t136.5 -57.5t137 55t56 142q0 82 -56.5 139.5t-136.5 57.5q-81 0 -136.5 -57.5t-55.5 -139.5z" />
<glyph unicode="&#xb1;" d="M49 0v49h821v-49h-821zM49 535v49h385v395h47v-395h385v-49h-385v-402h-47v402h-385z" />
<glyph unicode="&#xb2;" horiz-adv-x="561" d="M16 750v41l404 477q49 65 49 135q0 72 -53.5 119t-145.5 47q-68 0 -121 -35.5t-73 -95.5l-47 10q24 72 92 116t151 44q116 0 180 -58t64 -145q0 -88 -63 -166l-377 -446h438v-43h-498z" />
<glyph unicode="&#xb3;" horiz-adv-x="546" d="M14 885l49 4q44 -107 187 -107q91 0 159 55t68 144q0 91 -54.5 142t-139.5 51h-62v40h51q81 0 135 47.5t54 124.5q0 82 -56 137.5t-151 55.5q-58 0 -111 -32.5t-73 -86.5l-47 10q28 67 90.5 105.5t144.5 38.5q121 0 186.5 -64.5t65.5 -158.5q0 -53 -31.5 -111t-99.5 -84 q41 -14 71.5 -41t45.5 -57.5t21.5 -58t6.5 -52.5q0 -110 -79.5 -178t-198.5 -68q-181 0 -232 144z" />
<glyph unicode="&#xb4;" horiz-adv-x="976" d="M434 1182l168 291l66 -33l-203 -275z" />
<glyph unicode="&#xb6;" horiz-adv-x="942" d="M43 1143q0 159 93.5 259.5t277.5 100.5h497v-63h-147v-1606h-66v1606h-219v-1606h-65v938q-74 0 -140.5 24t-118 69.5t-82 117t-30.5 160.5z" />
<glyph unicode="&#xb7;" horiz-adv-x="292" d="M106 494v88h78v-88h-78z" />
<glyph unicode="&#xb8;" horiz-adv-x="829" d="M348 -356l14 39q62 -21 113 -21q54 0 94.5 22.5t40.5 75.5q0 50 -51.5 78.5t-124.5 28.5l-10 8l43 133h45l-35 -102q56 -5 95.5 -21t58 -39t26 -44.5t7.5 -45.5q0 -51 -45.5 -94t-143.5 -43q-65 0 -127 25z" />
<glyph unicode="&#xb9;" horiz-adv-x="413" d="M66 1470v52l147 86h45v-858h-47v804z" />
<glyph unicode="&#xba;" horiz-adv-x="673" d="M53 901q0 191 101 275q74 61 186 61q155 0 229 -107q52 -77 52 -237q0 -178 -80 -262q-71 -74 -207 -74q-124 0 -191 64q-90 83 -90 280zM98 897q0 -170 78 -248q58 -55 162 -55q109 0 168 59q72 72 72 240q0 152 -50 217q-66 88 -188 88q-102 0 -166 -61 q-76 -76 -76 -240z" />
<glyph unicode="&#xbb;" horiz-adv-x="780" d="M147 94l226 340l-226 338h56l231 -338l-227 -340h-60zM387 94l225 340l-225 338h55l232 -338l-228 -340h-59z" />
<glyph unicode="&#xbc;" horiz-adv-x="1509" d="M190 1286v51l148 86h45v-858h-47v805zM256 -35l866 1497h58l-871 -1497h-53zM768 139v35l340 684h53l-344 -678h375v269h47v-269h86v-41h-86v-139h-47v139h-424z" />
<glyph unicode="&#xbd;" horiz-adv-x="1509" d="M166 1286v51l147 86h45v-858h-47v805zM229 -35l867 1497h57l-870 -1497h-54zM852 0v41l403 477q50 66 50 135q0 72 -53.5 119t-145.5 47q-68 0 -121.5 -35.5t-73.5 -95.5l-47 10q24 72 92.5 116t151.5 44q116 0 180 -58t64 -145t-64 -166l-377 -446h439v-43h-498z" />
<glyph unicode="&#xbe;" horiz-adv-x="1509" d="M96 700l49 5q44 -107 187 -107q91 0 159 55t68 144q0 91 -54.5 141.5t-139.5 50.5h-62v41h51q81 0 135 47.5t54 124.5q0 82 -56 137.5t-151 55.5q-58 0 -111 -32.5t-73 -86.5l-48 10q28 67 90.5 105.5t145.5 38.5q121 0 186.5 -65t65.5 -159q0 -53 -31.5 -110.5 t-99.5 -83.5q41 -14 71.5 -41t45.5 -57.5t21.5 -58t6.5 -52.5q0 -110 -79.5 -178t-198.5 -68q-182 0 -232 143zM338 -35l866 1497h58l-871 -1497h-53zM864 139v35l340 684h53l-344 -678h375v269h47v-269h86v-41h-86v-139h-47v139h-424z" />
<glyph unicode="&#xbf;" horiz-adv-x="858" d="M59 -90q1 54 14 100.5t43 92.5t51 71t64 74q39 43 59 67.5t48 64.5t41.5 81t17.5 86v151h52v-155q-3 -85 -50 -162.5t-129 -163.5q-161 -170 -161 -297q0 -40 9.5 -80.5t32.5 -82t58 -73.5t90.5 -52.5t124.5 -20.5q66 0 125.5 28.5t100 72t66.5 92.5t32 94l51 -11 q-36 -150 -142.5 -235.5t-240.5 -85.5q-158 0 -256.5 97t-100.5 247zM379 915v89h78v-89h-78z" />
<glyph unicode="&#xc0;" horiz-adv-x="1224" d="M37 0l518 1425h74l518 -1425h-64l-125 358h-733l-127 -358h-61zM244 410h696l-346 962h-4zM330 1663l49 53l264 -207l-22 -26z" />
<glyph unicode="&#xc1;" horiz-adv-x="1183" d="M37 0l518 1425h74l518 -1425h-64l-125 358h-733l-127 -358h-61zM244 410h696l-346 962h-4zM551 1509l264 207l49 -53l-291 -180z" />
<glyph unicode="&#xc2;" horiz-adv-x="1183" d="M37 0l518 1425h74l518 -1425h-64l-125 358h-733l-127 -358h-61zM244 410h696l-346 962h-4zM317 1511l250 205h60l241 -205l-24 -24l-250 168l-252 -170z" />
<glyph unicode="&#xc3;" horiz-adv-x="1183" d="M37 0l518 1425h74l518 -1425h-64l-125 358h-733l-127 -358h-61zM244 410h696l-346 962h-4zM311 1548q76 109 174 109q41 0 128 -41t120 -41q31 0 54.5 18t54.5 62l41 -25q-63 -110 -152 -110q-37 0 -124.5 41t-125.5 41q-66 0 -131 -78z" />
<glyph unicode="&#xc4;" horiz-adv-x="1183" d="M37 0l518 1425h74l518 -1425h-64l-125 358h-733l-127 -358h-61zM244 410h696l-346 962h-4zM367 1542v74h77v-74h-77zM731 1542v74h78v-74h-78z" />
<glyph unicode="&#xc5;" horiz-adv-x="1183" d="M37 0l518 1425h74l518 -1425h-64l-125 358h-733l-127 -358h-61zM244 410h696l-346 962h-4zM414 1640q0 73 52 124t124 51q74 0 126 -51t52 -124q0 -72 -52.5 -124t-125.5 -52q-72 0 -124 52t-52 124zM455 1640q0 -57 39 -97t96 -40q58 0 97.5 40t39.5 97t-39.5 97.5 t-97.5 40.5q-57 0 -96 -40.5t-39 -97.5z" />
<glyph unicode="&#xc6;" horiz-adv-x="1826" d="M2 0l893 1425h874v-49h-790v-626h676v-50h-676v-651h790v-49h-845v358h-631l-227 -358h-64zM326 410h598v962z" />
<glyph unicode="&#xc7;" horiz-adv-x="1064" d="M109 498v440q0 102 30.5 191t89 158t152.5 109t213 40q149 0 260 -67.5t166 -182.5l-45 -27q-48 103 -147.5 166.5t-231.5 63.5q-107 0 -191 -35.5t-136.5 -98t-79.5 -144t-27 -177.5v-447q0 -94 27 -175.5t79.5 -144.5t136.5 -99.5t191 -36.5q267 0 387 254l45 -19 q-54 -126 -164 -201t-258 -79l-26 -80q56 -5 95 -21t57.5 -39t26 -44.5t7.5 -45.5q0 -23 -9.5 -45t-29.5 -43.5t-59 -35t-90 -13.5q-64 0 -127 25l14 39q62 -21 113 -21q54 0 94.5 22.5t40.5 75.5q0 50 -51.5 78.5t-124.5 28.5l-11 8l35 113q-114 4 -202 46.5t-142 113 t-81 159t-27 191.5z" />
<glyph unicode="&#xc8;" horiz-adv-x="1064" d="M164 0v1425h846v-49h-791v-626h676v-50h-676v-651h791v-49h-846zM367 1663l49 53l264 -207l-23 -26z" />
<glyph unicode="&#xc9;" horiz-adv-x="1064" d="M164 0v1425h846v-49h-791v-626h676v-50h-676v-651h791v-49h-846zM473 1509l264 207l49 -53l-290 -180z" />
<glyph unicode="&#xca;" horiz-adv-x="1064" d="M164 0v1425h846v-49h-791v-626h676v-50h-676v-651h791v-49h-846zM315 1511l250 205h60l241 -205l-24 -24l-250 168l-252 -170z" />
<glyph unicode="&#xcb;" horiz-adv-x="1064" d="M164 0v1425h846v-49h-791v-626h676v-50h-676v-651h791v-49h-846zM367 1542v74h77v-74h-77zM731 1542v74h78v-74h-78z" />
<glyph unicode="&#xcc;" horiz-adv-x="405" d="M-72 1663l49 53l265 -207l-23 -26zM176 0v1425h53v-1425h-53z" />
<glyph unicode="&#xcd;" horiz-adv-x="405" d="M176 0v1425h53v-1425h-53zM182 1509l264 207l50 -53l-291 -180z" />
<glyph unicode="&#xce;" horiz-adv-x="581" d="M-27 1511l250 205h60l241 -205l-24 -24l-250 168l-252 -170zM219 0v1425h53v-1425h-53z" />
<glyph unicode="&#xcf;" horiz-adv-x="405" d="M-16 1542v74h77v-74h-77zM176 0v1425h53v-1425h-53zM348 1542v74h78v-74h-78z" />
<glyph unicode="&#xd0;" horiz-adv-x="1228" d="M33 748v47h131v630h454q165 0 275 -61t172 -193q31 -65 40 -167t9 -265q0 -187 -8 -291t-39 -178q-61 -146 -176.5 -208t-296.5 -62h-430v748h-131zM219 49h383q459 0 459 506v303q0 144 -31.5 245.5t-92.5 160.5t-143 85.5t-192 26.5h-383v-581h352v-47h-352v-699z" />
<glyph unicode="&#xd1;" horiz-adv-x="1347" d="M170 0v1425h59l901 -1339v1339h54v-1425h-60l-901 1337v-1337h-53zM408 1548q76 109 174 109q42 0 128 -41t119 -41q31 0 54.5 18t54.5 62l41 -25q-63 -110 -152 -110q-37 0 -124 41t-125 41q-67 0 -132 -78z" />
<glyph unicode="&#xd2;" horiz-adv-x="1144" d="M88 498v440q0 102 30.5 191t89 158t152.5 109t213 40q222 0 350 -138t128 -360v-440q0 -236 -128 -374t-350 -138q-122 0 -217 41t-152.5 112t-86.5 162t-29 197zM143 487q0 -92 27.5 -173t79.5 -143.5t136 -99t189 -36.5q194 0 307 129t113 336v434q0 197 -113 323.5 t-307 126.5q-105 0 -188.5 -35t-136 -97t-80 -143t-27.5 -175v-447zM395 1663l49 53l265 -207l-23 -26z" />
<glyph unicode="&#xd3;" horiz-adv-x="1144" d="M88 498v440q0 102 30.5 191t89 158t152.5 109t213 40q222 0 350 -138t128 -360v-440q0 -236 -128 -374t-350 -138q-122 0 -217 41t-152.5 112t-86.5 162t-29 197zM143 487q0 -92 27.5 -173t79.5 -143.5t136 -99t189 -36.5q194 0 307 129t113 336v434q0 197 -113 323.5 t-307 126.5q-105 0 -188.5 -35t-136 -97t-80 -143t-27.5 -175v-447zM473 1509l264 207l49 -53l-290 -180z" />
<glyph unicode="&#xd4;" horiz-adv-x="1144" d="M88 498v440q0 102 30.5 191t89 158t152.5 109t213 40q222 0 350 -138t128 -360v-440q0 -236 -128 -374t-350 -138q-122 0 -217 41t-152.5 112t-86.5 162t-29 197zM143 487q0 -92 27.5 -173t79.5 -143.5t136 -99t189 -36.5q194 0 307 129t113 336v434q0 197 -113 323.5 t-307 126.5q-105 0 -188.5 -35t-136 -97t-80 -143t-27.5 -175v-447zM295 1511l250 205h59l242 -205l-25 -24l-250 168l-252 -170z" />
<glyph unicode="&#xd5;" horiz-adv-x="1144" d="M88 498v440q0 102 30.5 191t89 158t152.5 109t213 40q222 0 350 -138t128 -360v-440q0 -236 -128 -374t-350 -138q-122 0 -217 41t-152.5 112t-86.5 162t-29 197zM143 487q0 -92 27.5 -173t79.5 -143.5t136 -99t189 -36.5q194 0 307 129t113 336v434q0 197 -113 323.5 t-307 126.5q-105 0 -188.5 -35t-136 -97t-80 -143t-27.5 -175v-447zM293 1548q76 109 174 109q41 0 128 -41t120 -41q31 0 54 18t54 62l41 -25q-63 -110 -151 -110q-37 0 -124.5 41t-125.5 41q-66 0 -131 -78z" />
<glyph unicode="&#xd6;" horiz-adv-x="1144" d="M88 498v440q0 102 30.5 191t89 158t152.5 109t213 40q222 0 350 -138t128 -360v-440q0 -236 -128 -374t-350 -138q-122 0 -217 41t-152.5 112t-86.5 162t-29 197zM143 487q0 -92 27.5 -173t79.5 -143.5t136 -99t189 -36.5q194 0 307 129t113 336v434q0 197 -113 323.5 t-307 126.5q-105 0 -188.5 -35t-136 -97t-80 -143t-27.5 -175v-447zM350 1542v74h78v-74h-78zM715 1542v74h78v-74h-78z" />
<glyph unicode="&#xd7;" d="M98 229l328 328l-315 315l34 35l316 -315l323 321l33 -32l-323 -324l317 -315l-35 -35l-317 315l-326 -325z" />
<glyph unicode="&#xd8;" horiz-adv-x="1144" d="M88 18l94 146q-94 134 -94 334v440q0 102 30.5 191t89 158t152.5 109t213 40q221 0 351 -140l88 138l39 -25l-97 -149q97 -134 97 -322v-440q0 -236 -128 -374t-350 -138q-230 0 -358 141l-88 -135zM143 487q0 -154 74 -272l674 1032q-115 137 -316 137 q-105 0 -188.5 -35t-136 -97t-80 -143t-27.5 -175v-447zM246 176q118 -141 329 -141q194 0 307 129t113 336v434q0 158 -75 274z" />
<glyph unicode="&#xd9;" horiz-adv-x="1228" d="M135 475v950h53v-923q0 -201 118.5 -332t307.5 -131q187 0 305.5 119t118.5 321v946h56v-970q0 -208 -136.5 -337.5t-343.5 -129.5q-205 0 -342 134.5t-137 352.5zM395 1663l49 53l265 -207l-23 -26z" />
<glyph unicode="&#xda;" horiz-adv-x="1228" d="M135 475v950h53v-923q0 -201 118.5 -332t307.5 -131q187 0 305.5 119t118.5 321v946h56v-970q0 -208 -136.5 -337.5t-343.5 -129.5q-205 0 -342 134.5t-137 352.5zM473 1509l264 207l49 -53l-290 -180z" />
<glyph unicode="&#xdb;" horiz-adv-x="1228" d="M135 475v950h53v-923q0 -201 118.5 -332t307.5 -131q187 0 305.5 119t118.5 321v946h56v-970q0 -208 -136.5 -337.5t-343.5 -129.5q-205 0 -342 134.5t-137 352.5zM334 1511l250 205h59l242 -205l-25 -24l-250 168l-252 -170z" />
<glyph unicode="&#xdc;" horiz-adv-x="1228" d="M135 475v950h53v-923q0 -201 118.5 -332t307.5 -131q187 0 305.5 119t118.5 321v946h56v-970q0 -208 -136.5 -337.5t-343.5 -129.5q-205 0 -342 134.5t-137 352.5zM397 1542v74h78v-74h-78zM762 1542v74h78v-74h-78z" />
<glyph unicode="&#xdd;" horiz-adv-x="940" d="M18 1425h56l397 -780l395 780h54l-424 -833v-592h-52v592zM356 1509l265 207l49 -53l-291 -180z" />
<glyph unicode="&#xde;" horiz-adv-x="1118" d="M168 0v1425h55v-313h447q87 0 161.5 -22t135.5 -68t96 -126.5t35 -188.5q0 -71 -24.5 -138.5t-72.5 -125.5t-129.5 -93t-185.5 -35h-463v-315h-55zM223 367h453q94 0 166 29.5t113.5 79.5t62 110t20.5 127q0 171 -104.5 260.5t-265.5 89.5h-445v-696z" />
<glyph unicode="&#xdf;" horiz-adv-x="1034" d="M154 0v1092q0 174 95 279.5t275 105.5q82 0 150 -27t110.5 -72t66 -101t23.5 -116q0 -42 -8.5 -82.5t-27 -83.5t-54.5 -80t-86 -61v-6q79 -25 132.5 -84.5t76.5 -134t23 -162.5q0 -105 -20.5 -187t-53.5 -134t-80 -85.5t-96 -47t-105 -13.5h-55v47h43q158 0 236 114 t78 308q0 165 -88 259.5t-218 94.5h-14v43h18q74 0 132 43.5t86 105.5t28 126q0 50 -15.5 98t-49 93t-95.5 72.5t-145 27.5q-72 0 -128 -23t-89.5 -58.5t-55.5 -83t-30 -91.5t-8 -89v-1087h-51z" />
<glyph unicode="&#xe0;" horiz-adv-x="952" d="M66 272q0 129 84.5 203t242.5 74h400v160q0 134 -74.5 203t-249.5 69q-185 0 -303 -104l-33 34q127 115 342 115q82 0 144 -13.5t115.5 -46t81.5 -94.5t28 -153v-719h-51v123h-5q-36 -57 -100 -89t-124 -40t-142 -8q-69 0 -131 16.5t-113.5 49.5t-81.5 89.5t-30 130.5z M117 272q0 -117 85.5 -179t227.5 -62q57 0 113.5 10t116 33t96.5 71t37 115v244h-390q-136 0 -211 -57.5t-75 -174.5zM332 1440l65 33l168 -291l-30 -17z" />
<glyph unicode="&#xe1;" horiz-adv-x="952" d="M66 272q0 129 84.5 203t242.5 74h400v160q0 134 -74.5 203t-249.5 69q-185 0 -303 -104l-33 34q127 115 342 115q82 0 144 -13.5t115.5 -46t81.5 -94.5t28 -153v-719h-51v123h-5q-36 -57 -100 -89t-124 -40t-142 -8q-69 0 -131 16.5t-113.5 49.5t-81.5 89.5t-30 130.5z M117 272q0 -117 85.5 -179t227.5 -62q57 0 113.5 10t116 33t96.5 71t37 115v244h-390q-136 0 -211 -57.5t-75 -174.5zM475 1182l168 291l66 -33l-203 -275z" />
<glyph unicode="&#xe2;" horiz-adv-x="952" d="M66 272q0 129 84.5 203t242.5 74h400v160q0 134 -74.5 203t-249.5 69q-185 0 -303 -104l-33 34q127 115 342 115q82 0 144 -13.5t115.5 -46t81.5 -94.5t28 -153v-719h-51v123h-5q-36 -57 -100 -89t-124 -40t-142 -8q-69 0 -131 16.5t-113.5 49.5t-81.5 89.5t-30 130.5z M117 272q0 -117 85.5 -179t227.5 -62q57 0 113.5 10t116 33t96.5 71t37 115v244h-390q-136 0 -211 -57.5t-75 -174.5zM209 1169l250 226h59l242 -226l-25 -24l-250 188l-252 -190z" />
<glyph unicode="&#xe3;" horiz-adv-x="952" d="M66 272q0 129 84.5 203t242.5 74h400v160q0 134 -74.5 203t-249.5 69q-185 0 -303 -104l-33 34q127 115 342 115q82 0 144 -13.5t115.5 -46t81.5 -94.5t28 -153v-719h-51v123h-5q-36 -57 -100 -89t-124 -40t-142 -8q-69 0 -131 16.5t-113.5 49.5t-81.5 89.5t-30 130.5z M117 272q0 -117 85.5 -179t227.5 -62q57 0 113.5 10t116 33t96.5 71t37 115v244h-390q-136 0 -211 -57.5t-75 -174.5zM201 1241q76 109 174 109q41 0 128.5 -41t119.5 -41q31 0 54 18t54 62l41 -25q-64 -111 -151 -111q-37 0 -124.5 41t-125.5 41q-67 0 -131 -77z" />
<glyph unicode="&#xe4;" horiz-adv-x="952" d="M66 272q0 129 84.5 203t242.5 74h400v160q0 134 -74.5 203t-249.5 69q-185 0 -303 -104l-33 34q127 115 342 115q82 0 144 -13.5t115.5 -46t81.5 -94.5t28 -153v-719h-51v123h-5q-36 -57 -100 -89t-124 -40t-142 -8q-69 0 -131 16.5t-113.5 49.5t-81.5 89.5t-30 130.5z M117 272q0 -117 85.5 -179t227.5 -62q57 0 113.5 10t116 33t96.5 71t37 115v244h-390q-136 0 -211 -57.5t-75 -174.5zM262 1257v74h78v-74h-78zM659 1257v74h78v-74h-78z" />
<glyph unicode="&#xe5;" horiz-adv-x="952" d="M66 272q0 129 84.5 203t242.5 74h400v160q0 134 -74.5 203t-249.5 69q-185 0 -303 -104l-33 34q127 115 342 115q82 0 144 -13.5t115.5 -46t81.5 -94.5t28 -153v-719h-51v123h-5q-36 -57 -100 -89t-124 -40t-142 -8q-69 0 -131 16.5t-113.5 49.5t-81.5 89.5t-30 130.5z M117 272q0 -117 85.5 -179t227.5 -62q57 0 113.5 10t116 33t96.5 71t37 115v244h-390q-136 0 -211 -57.5t-75 -174.5zM309 1317q0 73 51.5 123.5t124.5 50.5q74 0 126.5 -50.5t52.5 -123.5q0 -72 -53 -124t-126 -52q-72 0 -124 52t-52 124zM350 1317q0 -57 39 -97t96 -40 q58 0 98 40t40 97t-40 97t-98 40q-57 0 -96 -40t-39 -97z" />
<glyph unicode="&#xe6;" horiz-adv-x="1667" d="M68 260q0 131 84.5 211t240.5 80h400v170q0 258 -287 258q-207 0 -330 -94l-31 39q134 102 351 102q72 0 127.5 -11.5t102 -38t75.5 -75.5t39 -119q35 89 96 146t125 77.5t137 20.5q84 0 151.5 -25t112 -68t74 -103.5t42.5 -128.5t13 -146v-49h-749q-4 -479 381 -479 q135 0 250 79l30 -36q-121 -84 -276 -84q-298 0 -391 247q-11 -34 -30.5 -66.5t-54 -66t-78.5 -58.5t-109 -40.5t-142 -15.5q-56 0 -105.5 8.5t-96 29t-79.5 51.5t-53 78t-20 107zM119 272q0 -117 84.5 -179t226.5 -62q158 0 260.5 82t102.5 221v172h-383q-127 0 -209 -59.5 t-82 -174.5zM846 549h692q-7 214 -95 324t-243 110q-161 0 -253 -114.5t-101 -319.5z" />
<glyph unicode="&#xe7;" horiz-adv-x="829" d="M63 506q0 139 38 243t103 162.5t141.5 86.5t164.5 28q154 0 278 -96l-30 -39q-47 39 -110 65.5t-126 26.5q-195 0 -301 -124.5t-106 -352.5t106 -353.5t301 -125.5q119 0 236 92l30 -35q-126 -98 -278 -98h-6l-27 -80q56 -5 95.5 -21t58 -39t26 -44.5t7.5 -45.5 q0 -51 -45.5 -94t-143.5 -43q-65 0 -127 25l14 39q62 -21 113 -21q54 0 94.5 22.5t40.5 75.5q0 50 -51.5 78.5t-124.5 28.5l-10 8l37 113q-81 7 -150 39.5t-126 92t-89.5 158.5t-32.5 228z" />
<glyph unicode="&#xe8;" horiz-adv-x="952" d="M88 502q0 121 24.5 214.5t63.5 151t93.5 94t108.5 50.5t114 14q84 0 151.5 -25t112 -68t74 -103.5t42.5 -128.5t13 -146v-41h-750q-1 -104 17.5 -187.5t61 -153t119 -108t183.5 -38.5q134 0 250 79l31 -36q-121 -84 -277 -84q-432 0 -432 516zM139 557h692 q-7 213 -94.5 319.5t-242.5 106.5q-162 0 -254 -111.5t-101 -314.5zM340 1440l66 33l167 -291l-30 -17z" />
<glyph unicode="&#xe9;" horiz-adv-x="952" d="M88 502q0 121 24.5 214.5t63.5 151t93.5 94t108.5 50.5t114 14q84 0 151.5 -25t112 -68t74 -103.5t42.5 -128.5t13 -146v-41h-750q-1 -104 17.5 -187.5t61 -153t119 -108t183.5 -38.5q134 0 250 79l31 -36q-121 -84 -277 -84q-432 0 -432 516zM139 557h692 q-7 213 -94.5 319.5t-242.5 106.5q-162 0 -254 -111.5t-101 -314.5zM434 1182l168 291l66 -33l-203 -275z" />
<glyph unicode="&#xea;" horiz-adv-x="952" d="M88 502q0 121 24.5 214.5t63.5 151t93.5 94t108.5 50.5t114 14q84 0 151.5 -25t112 -68t74 -103.5t42.5 -128.5t13 -146v-41h-750q-1 -104 17.5 -187.5t61 -153t119 -108t183.5 -38.5q134 0 250 79l31 -36q-121 -84 -277 -84q-432 0 -432 516zM139 557h692 q-7 213 -94.5 319.5t-242.5 106.5q-162 0 -254 -111.5t-101 -314.5zM209 1169l250 226h59l242 -226l-25 -24l-250 188l-252 -190z" />
<glyph unicode="&#xeb;" horiz-adv-x="952" d="M88 502q0 121 24.5 214.5t63.5 151t93.5 94t108.5 50.5t114 14q84 0 151.5 -25t112 -68t74 -103.5t42.5 -128.5t13 -146v-41h-750q-1 -104 17.5 -187.5t61 -153t119 -108t183.5 -38.5q134 0 250 79l31 -36q-121 -84 -277 -84q-432 0 -432 516zM139 557h692 q-7 213 -94.5 319.5t-242.5 106.5q-162 0 -254 -111.5t-101 -314.5zM262 1257v74h78v-74h-78zM659 1257v74h78v-74h-78z" />
<glyph unicode="&#xec;" horiz-adv-x="409" d="M-25 1440l66 33l168 -291l-31 -17zM166 0v1016h51v-1016h-51z" />
<glyph unicode="&#xed;" horiz-adv-x="409" d="M166 0v1016h51v-1016h-51zM176 1182l168 291l66 -33l-203 -275z" />
<glyph unicode="&#xee;" horiz-adv-x="468" d="M-41 1169l250 226h59l242 -226l-25 -24l-249 188l-252 -190zM209 0v1016h51v-1016h-51z" />
<glyph unicode="&#xef;" horiz-adv-x="413" d="M-31 1257v74h78v-74h-78zM182 0v1016h51v-1016h-51zM367 1257v74h77v-74h-77z" />
<glyph unicode="&#xf0;" horiz-adv-x="1005" d="M90 475q0 276 146 406q109 94 266 94q130 0 228 -70.5t124 -179.5h6q0 334 -90 502l-162 -115l-22 33l164 117q-109 158 -332 178l6 45q249 -17 369 -193l149 107l25 -35l-154 -109q96 -173 96 -544q0 -91 -1 -139t-7 -130t-18.5 -133.5t-37.5 -109t-61 -97.5 q-97 -108 -290 -114q-176 0 -271 92q-133 130 -133 395zM141 469q0 -230 117 -350q85 -88 242 -88q143 0 237 94q111 114 111 358q0 140 -31 225t-90 138q-92 82 -227 82q-170 0 -262 -113q-47 -56 -72 -135.5t-25 -210.5z" />
<glyph unicode="&#xf1;" horiz-adv-x="1024" d="M129 0v1012h49v-197h4q32 71 93.5 120t126 69t130.5 20q179 0 270 -89t91 -251v-684h-49v670q0 152 -83 230.5t-233 78.5q-147 0 -248.5 -102.5t-101.5 -258.5v-618h-49zM199 1241q76 109 174 109q41 0 128 -41t120 -41q31 0 54 18t54 62l41 -25q-64 -111 -152 -111 q-37 0 -124 41t-125 41q-67 0 -131 -77z" />
<glyph unicode="&#xf2;" horiz-adv-x="976" d="M84 514q0 292 143 418q109 94 267 94q219 0 325 -162q74 -117 74 -364q0 -272 -117 -400q-103 -112 -293 -112q-171 0 -270 96q-129 129 -129 430zM135 508q0 -149 29.5 -239t85.5 -148q90 -90 239 -90q153 0 248 98q51 55 78 139.5t27 233.5q0 241 -70 340 q-45 65 -117.5 102t-162.5 37q-149 0 -244 -98q-56 -57 -84.5 -143t-28.5 -232zM317 1440l66 33l168 -291l-31 -17z" />
<glyph unicode="&#xf3;" horiz-adv-x="976" d="M84 514q0 292 143 418q109 94 267 94q219 0 325 -162q74 -117 74 -364q0 -272 -117 -400q-103 -112 -293 -112q-171 0 -270 96q-129 129 -129 430zM135 508q0 -149 29.5 -239t85.5 -148q90 -90 239 -90q153 0 248 98q51 55 78 139.5t27 233.5q0 241 -70 340 q-45 65 -117.5 102t-162.5 37q-149 0 -244 -98q-56 -57 -84.5 -143t-28.5 -232zM457 1182l168 291l65 -33l-203 -275z" />
<glyph unicode="&#xf4;" horiz-adv-x="976" d="M84 514q0 292 143 418q109 94 267 94q219 0 325 -162q74 -117 74 -364q0 -272 -117 -400q-103 -112 -293 -112q-171 0 -270 96q-129 129 -129 430zM135 508q0 -149 29.5 -239t85.5 -148q90 -90 239 -90q153 0 248 98q51 55 78 139.5t27 233.5q0 241 -70 340 q-45 65 -117.5 102t-162.5 37q-149 0 -244 -98q-56 -57 -84.5 -143t-28.5 -232zM213 1169l250 226h59l242 -226l-25 -24l-250 188l-251 -190z" />
<glyph unicode="&#xf5;" horiz-adv-x="976" d="M84 514q0 292 143 418q109 94 267 94q219 0 325 -162q74 -117 74 -364q0 -272 -117 -400q-103 -112 -293 -112q-171 0 -270 96q-129 129 -129 430zM135 508q0 -149 29.5 -239t85.5 -148q90 -90 239 -90q153 0 248 98q51 55 78 139.5t27 233.5q0 241 -70 340 q-45 65 -117.5 102t-162.5 37q-149 0 -244 -98q-56 -57 -84.5 -143t-28.5 -232zM221 1241q76 109 174 109q41 0 128 -41t120 -41q31 0 54.5 18t54.5 62l41 -25q-64 -111 -152 -111q-37 0 -124.5 41t-125.5 41q-67 0 -131 -77z" />
<glyph unicode="&#xf6;" horiz-adv-x="976" d="M84 514q0 292 143 418q109 94 267 94q219 0 325 -162q74 -117 74 -364q0 -272 -117 -400q-103 -112 -293 -112q-171 0 -270 96q-129 129 -129 430zM135 508q0 -149 29.5 -239t85.5 -148q90 -90 239 -90q153 0 248 98q51 55 78 139.5t27 233.5q0 241 -70 340 q-45 65 -117.5 102t-162.5 37q-149 0 -244 -98q-56 -57 -84.5 -143t-28.5 -232zM250 1257v74h78v-74h-78zM647 1257v74h78v-74h-78z" />
<glyph unicode="&#xf7;" d="M49 535v49h817v-49h-817zM403 219q0 26 19.5 41.5t44.5 15.5q24 0 40.5 -14.5t16.5 -42.5q0 -25 -17 -42t-42 -17q-26 0 -44 17t-18 42zM403 891q0 27 18.5 42t43.5 15t42 -14.5t17 -42.5q0 -25 -17 -42.5t-42 -17.5q-26 0 -44 17.5t-18 42.5z" />
<glyph unicode="&#xf8;" horiz-adv-x="976" d="M84 514q0 292 143 418q109 94 267 94q177 0 282 -108l82 106l33 -27l-86 -112q2 -4 4.5 -7.5t5.5 -7.5t4 -6q74 -117 74 -364q0 -272 -117 -400q-103 -112 -293 -112q-171 0 -270 96l-12 12l-78 -102l-35 26l84 111q-88 128 -88 383zM135 508q0 -219 72 -334l536 700 q-96 107 -251 107q-149 0 -244 -98q-56 -57 -84.5 -143t-28.5 -232zM233 137q2 -3 8.5 -8.5t8.5 -7.5q90 -90 239 -90q153 0 248 98q51 55 78 139.5t27 233.5q0 241 -70 340z" />
<glyph unicode="&#xf9;" horiz-adv-x="1060" d="M143 342v674h52v-670q0 -149 86 -230t225 -81q149 0 251.5 99.5t102.5 254.5v627h47v-1016h-49v188h-4q-44 -98 -145.5 -148t-204.5 -50q-173 0 -267 95.5t-94 256.5zM373 1440l65 33l168 -291l-31 -17z" />
<glyph unicode="&#xfa;" horiz-adv-x="1060" d="M143 342v674h52v-670q0 -149 86 -230t225 -81q149 0 251.5 99.5t102.5 254.5v627h47v-1016h-49v188h-4q-44 -98 -145.5 -148t-204.5 -50q-173 0 -267 95.5t-94 256.5zM508 1182l168 291l65 -33l-202 -275z" />
<glyph unicode="&#xfb;" horiz-adv-x="1060" d="M143 342v674h52v-670q0 -149 86 -230t225 -81q149 0 251.5 99.5t102.5 254.5v627h47v-1016h-49v188h-4q-44 -98 -145.5 -148t-204.5 -50q-173 0 -267 95.5t-94 256.5zM254 1169l250 226h59l242 -226l-25 -24l-250 188l-251 -190z" />
<glyph unicode="&#xfc;" horiz-adv-x="1060" d="M143 342v674h52v-670q0 -149 86 -230t225 -81q149 0 251.5 99.5t102.5 254.5v627h47v-1016h-49v188h-4q-44 -98 -145.5 -148t-204.5 -50q-173 0 -267 95.5t-94 256.5zM285 1257v74h77v-74h-77zM682 1257v74h78v-74h-78z" />
<glyph unicode="&#xfd;" horiz-adv-x="837" d="M14 1012h58l350 -971h2l344 971h55l-446 -1248q-29 -83 -87 -129.5t-128 -46.5h-35v47h31q57 0 104 40.5t74 119.5l59 176zM381 1182l168 291l65 -33l-202 -275z" />
<glyph unicode="&#xfe;" horiz-adv-x="1001" d="M121 -410v1835h51v-610h2q105 215 328 215q104 0 180.5 -40.5t121.5 -113.5t66 -166t21 -208q0 -78 -11.5 -148.5t-40 -138t-72 -116t-111.5 -78t-154 -29.5q-225 0 -328 215h-2v-617h-51zM172 516q0 -104 19 -189.5t57.5 -152t103 -104t150.5 -37.5q79 0 140.5 30 t97.5 76.5t59 112t31 127.5t8 131q0 477 -336 477q-81 0 -142.5 -32t-96 -79.5t-56 -114t-28.5 -124.5t-7 -121z" />
<glyph unicode="&#xff;" horiz-adv-x="837" d="M14 1012h58l350 -971h2l344 971h55l-446 -1248q-29 -83 -87 -129.5t-128 -46.5h-35v47h31q57 0 104 40.5t74 119.5l59 176zM193 1257v74h77v-74h-77zM590 1257v74h78v-74h-78z" />
<glyph unicode="&#x152;" horiz-adv-x="1597" d="M88 498v440q0 102 30.5 191t89 158t152.5 109t213 40q76 0 132 -11h837v-49h-790v-626h675v-50h-675v-651h790v-49h-837q-72 -14 -132 -14q-129 0 -225 40.5t-151.5 112.5t-82 161.5t-26.5 197.5zM145 487q0 -94 25 -173.5t75 -143t134.5 -99.5t195.5 -36q69 0 121 14 v1325q-46 10 -121 10q-105 0 -188.5 -35t-135.5 -97t-79 -143t-27 -175v-447z" />
<glyph unicode="&#x153;" horiz-adv-x="1699" d="M84 514q0 292 143 418q109 94 267 94q219 0 325 -162q35 -54 55 -139q18 68 49.5 120.5t68 86t81.5 55.5t88.5 30.5t89.5 8.5q105 0 183 -37.5t123 -104t66.5 -149t21.5 -180.5v-41h-750q-4 -487 381 -487q134 0 250 79l30 -36q-121 -84 -276 -84q-333 0 -410 305 q-26 -117 -94 -191q-103 -112 -293 -112q-171 0 -270 96q-129 129 -129 430zM135 508q0 -149 29.5 -239t85.5 -148q90 -90 239 -90q153 0 248 98q51 55 78 139.5t27 233.5q0 241 -70 340q-45 65 -117.5 102t-162.5 37q-149 0 -244 -98q-56 -57 -84.5 -143t-28.5 -232z M899 557h692q-7 213 -95 319.5t-243 106.5q-162 0 -253.5 -111t-100.5 -315z" />
<glyph unicode="&#x178;" horiz-adv-x="940" d="M18 1425h56l397 -780l395 780h54l-424 -833v-592h-52v592zM276 1542v74h78v-74h-78zM641 1542v74h78v-74h-78z" />
<glyph unicode="&#x2c6;" horiz-adv-x="976" d="M209 1169l250 226h59l242 -226l-25 -24l-250 188l-252 -190z" />
<glyph unicode="&#x2dc;" horiz-adv-x="976" d="M219 1241q76 109 174 109q41 0 128.5 -41t119.5 -41q31 0 54.5 18t54.5 62l41 -25q-64 -111 -152 -111q-37 0 -124.5 41t-125.5 41q-67 0 -131 -77z" />
<glyph unicode="&#x2000;" horiz-adv-x="907" />
<glyph unicode="&#x2001;" horiz-adv-x="1815" />
<glyph unicode="&#x2002;" horiz-adv-x="907" />
<glyph unicode="&#x2003;" horiz-adv-x="1815" />
<glyph unicode="&#x2004;" horiz-adv-x="605" />
<glyph unicode="&#x2005;" horiz-adv-x="453" />
<glyph unicode="&#x2006;" horiz-adv-x="302" />
<glyph unicode="&#x2007;" horiz-adv-x="302" />
<glyph unicode="&#x2008;" horiz-adv-x="226" />
<glyph unicode="&#x2009;" horiz-adv-x="363" />
<glyph unicode="&#x200a;" horiz-adv-x="100" />
<glyph unicode="&#x2010;" horiz-adv-x="735" d="M111 518v53h514v-53h-514z" />
<glyph unicode="&#x2011;" horiz-adv-x="735" d="M111 518v53h514v-53h-514z" />
<glyph unicode="&#x2012;" horiz-adv-x="735" d="M111 518v53h514v-53h-514z" />
<glyph unicode="&#x2013;" horiz-adv-x="1003" d="M41 512v51h922v-51h-922z" />
<glyph unicode="&#x2014;" horiz-adv-x="2027" d="M41 512v51h1946v-51h-1946z" />
<glyph unicode="&#x2018;" horiz-adv-x="354" d="M135 1176v96l72 184h35l-47 -190h20v-90h-80z" />
<glyph unicode="&#x2019;" horiz-adv-x="354" d="M135 1178l47 190h-20v90h80v-96l-72 -184h-35z" />
<glyph unicode="&#x201a;" horiz-adv-x="278" d="M76 -190l47 190h-21v90h80v-96l-71 -184h-35z" />
<glyph unicode="&#x201c;" horiz-adv-x="458" d="M94 1176v96l72 184h35l-47 -190h20v-90h-80zM256 1176v96l72 184h34l-47 -190h21v-90h-80z" />
<glyph unicode="&#x201d;" horiz-adv-x="458" d="M96 1178l47 190h-20v90h80v-96l-72 -184h-35zM258 1178l47 190h-20v90h80v-96l-72 -184h-35z" />
<glyph unicode="&#x201e;" horiz-adv-x="604" d="M117 -190l47 190h-21v90h80v-96l-71 -184h-35zM354 -190l47 190h-20v90h80v-96l-72 -184h-35z" />
<glyph unicode="&#x2022;" horiz-adv-x="671" d="M195 537q0 63 43 107t104 44q60 0 102.5 -44t42.5 -107t-42.5 -106.5t-102.5 -43.5q-61 0 -104 44t-43 106z" />
<glyph unicode="&#x2026;" horiz-adv-x="942" d="M100 0v88h78v-88h-78zM428 0v88h78v-88h-78zM756 0v88h78v-88h-78z" />
<glyph unicode="&#x202f;" horiz-adv-x="363" />
<glyph unicode="&#x2039;" horiz-adv-x="540" d="M147 434l232 338h55l-225 -338l225 -340h-59z" />
<glyph unicode="&#x203a;" horiz-adv-x="540" d="M147 94l226 340l-226 338h56l231 -338l-227 -340h-60z" />
<glyph unicode="&#x205f;" horiz-adv-x="453" />
<glyph unicode="&#x20ac;" d="M27 596v47h77v154h-77v47h77v96q0 103 27 192.5t79.5 158.5t136 109t188.5 40q125 0 220.5 -54.5t155.5 -154.5l-45 -27q-55 94 -141.5 141.5t-189.5 47.5q-93 0 -167.5 -38t-119.5 -102.5t-68.5 -145t-23.5 -171.5v-92h532v-47h-532v-154h536v-47h-536v-107 q0 -90 23.5 -170.5t68.5 -145.5t119.5 -103.5t167.5 -38.5q226 0 329 202l47 -20q-111 -227 -376 -227q-108 0 -192 40.5t-135.5 112t-77.5 163t-26 198.5v96h-77z" />
<glyph unicode="&#x2122;" horiz-adv-x="1611" d="M84 1378v47h528v-47h-241v-723h-45v723h-242zM735 655v768h43l312 -596q36 69 145 276.5t166 319.5h39v-768h-43v676q-227 -435 -293 -559h-31l-295 559v-676h-43z" />
<glyph unicode="&#xe000;" horiz-adv-x="1013" d="M0 0v1014h1014v-1014h-1014z" />
</font>
</defs>
</svg>
